# xmcd
#
# Track frame offsets:
#	150
#	18612
#	35730
#	53005
#	71998
#	90801
#	107995
#	124868
#	142194
#	159778
#	178597
#	193611
#	210306
#	231779
#	245478
#	262375
#	274942
#	289983
#	307985
#	325810
#	344037
#
# Disc length: 4799 seconds
#
# Revision: 1
# Processed by: cddbd v1.5PL3 Copyright (c) Steve Scherf et al.
# Submitted via: audiograbber 1.82.02
#
DISCID=4512bd15
DTITLE=Collection - Nescafe Gold Ballads 9
DYEAR=2003
DGENRE=Ballads
TTITLE0=Enrique Iglesias - Love to see you cry
TTITLE1=Britney Spears - I'm not a girl, not yet
TTITLE2=Bosson - I believe
TTITLE3=Sarah Connor - From sarah with love
TTITLE4=Five - Closer to you
TTITLE5=Victoria Beckham - A mind of its own
TTITLE6=Westlife - Soledad
TTITLE7=Caprise - Once around the sun
TTITLE8=Bastian Ragas - You complete me
TTITLE9=E-Type - Star
TTITLE10=Addis Black Window - Goes around, comes around
TTITLE11=Lou Bega - Lonely
TTITLE12=Antique - Why (Milan)
TTITLE13=Amanda - Everybody doesn't
TTITLE14=Marc Antony - Tragedy
TTITLE15=Robbie Williams and Nickole Kidman - Somethin' stupid
TTITLE16=Blue - Girl i'll never understand
TTITLE17=Darren Hause - In stable
TTITLE18=Depese Mode - Free love
TTITLE19=Rafhorton - Otel California
TTITLE20=Oleg Zlobin - Lady
EXTD=
EXTT0=
EXTT1=
EXTT2=
EXTT3=
EXTT4=
EXTT5=
EXTT6=
EXTT7=
EXTT8=
EXTT9=
EXTT10=
EXTT11=
EXTT12=
EXTT13=
EXTT14=
EXTT15=
EXTT16=
EXTT17=
EXTT18=
EXTT19=
EXTT20=
PLAYORDER=
